<?xml version="1.0" standalone="no"?>
<!DOCTYPE svg PUBLIC "-//W3C//DTD SVG 20010904//EN"
 "http://www.w3.org/TR/2001/REC-SVG-20010904/DTD/svg10.dtd">
<svg version="1.0" xmlns="http://www.w3.org/2000/svg"
 width="1024.000000pt" height="27579.000000pt" viewBox="0 0 1024.000000 27579.000000"
 preserveAspectRatio="xMidYMid meet">

<g transform="translate(0.000000,27579.000000) scale(0.100000,-0.100000)"
fill="#000000" stroke="none">
<path d="M257 275683 c-4 -3 -7 -134 -7 -290 l0 -283 -69 0 c-39 0 -73 -4 -76
-10 -4 -6 25 -10 79 -10 l86 0 0 300 c0 165 -1 300 -3 300 -2 0 -7 -3 -10 -7z"/>
<path d="M178 275523 c7 -3 16 -2 19 1 4 3 -2 6 -13 5 -11 0 -14 -3 -6 -6z"/>
<path d="M173 275493 c9 -2 23 -2 30 0 6 3 -1 5 -18 5 -16 0 -22 -2 -12 -5z"/>
<path d="M166 275282 c-15 -14 -4 -32 20 -32 18 0 25 5 22 17 -3 16 -31 26
-42 15z"/>
<path d="M80 137180 l0 -5040 5040 0 5040 0 0 5040 0 5040 -5040 0 -5040 0 0
-5040z m9450 4227 l0 -183 -125 -27 c-189 -41 -346 -90 -600 -184 -407 -151
-552 -202 -688 -242 -526 -154 -1108 -172 -1642 -50 -185 41 -359 98 -755 242
-618 225 -908 291 -1350 304 -404 12 -774 -43 -1165 -173 -60 -20 -234 -82
-385 -139 -347 -129 -528 -188 -705 -230 l-140 -32 -6 191 c-5 139 -11 206
-24 246 -64 203 -229 370 -420 425 -33 10 -71 21 -85 26 -14 4 1801 8 4033 8
l4057 1 0 -183z m-4995 -1408 c384 -33 610 -90 1219 -310 695 -252 940 -303
1446 -303 372 0 623 35 943 132 l127 39 -2 -1891 -3 -1891 -125 -38 c-529
-159 -1124 -179 -1665 -56 -185 41 -359 98 -755 242 -618 225 -908 291 -1350
304 -227 7 -440 -7 -650 -43 -139 -23 -358 -76 -447 -108 l-43 -15 0 559 0
560 -630 0 -630 0 2 1126 3 1127 140 32 c177 41 357 100 705 230 464 173 664
232 932 275 243 38 545 50 783 29z m0 -5040 c384 -33 610 -90 1219 -310 689
-250 938 -302 1436 -303 281 -1 394 8 615 50 248 47 400 94 870 269 404 151
624 218 813 250 l42 7 0 -1076 0 -1076 -3150 0 -3150 0 2 1016 3 1017 40 14
c157 56 504 125 710 142 147 12 413 12 550 0z"/>
</g>
</svg>
