<svg width="91" height="93" viewBox="0 0 91 93" fill="none" xmlns="http://www.w3.org/2000/svg">
<ellipse cx="45.3375" cy="46.5" rx="45.3375" ry="46.5" fill="#025A42"/>
<path d="M45.3374 40.875C43.8829 40.875 42.4879 41.4676 41.4594 42.5225C40.4308 43.5774 39.853 45.0082 39.853 46.5C39.853 47.9918 40.4308 49.4226 41.4594 50.4775C42.4879 51.5324 43.8829 52.125 45.3374 52.125C46.7919 52.125 48.1869 51.5324 49.2154 50.4775C50.244 49.4226 50.8218 47.9918 50.8218 46.5C50.8218 45.0082 50.244 43.5774 49.2154 42.5225C48.1869 41.4676 46.7919 40.875 45.3374 40.875ZM45.3374 55.875C42.9132 55.875 40.5882 54.8873 38.874 53.1291C37.1598 51.371 36.1968 48.9864 36.1968 46.5C36.1968 44.0136 37.1598 41.629 38.874 39.8709C40.5882 38.1127 42.9132 37.125 45.3374 37.125C47.7616 37.125 50.0866 38.1127 51.8008 39.8709C53.515 41.629 54.478 44.0136 54.478 46.5C54.478 48.9864 53.515 51.371 51.8008 53.1291C50.0866 54.8873 47.7616 55.875 45.3374 55.875ZM45.3374 32.4375C36.1968 32.4375 28.3907 38.2688 25.228 46.5C28.3907 54.7312 36.1968 60.5625 45.3374 60.5625C54.478 60.5625 62.2841 54.7312 65.4468 46.5C62.2841 38.2688 54.478 32.4375 45.3374 32.4375Z" fill="white"/>
</svg>
