<svg width="91" height="93" viewBox="0 0 91 93" fill="none" xmlns="http://www.w3.org/2000/svg">
<ellipse cx="45.3375" cy="46.5" rx="45.3375" ry="46.5" fill="#025A42"/>
<g clip-path="url(#clip0_72_166)">
<path d="M42.5954 27.75C45.513 27.7498 48.3717 28.5921 50.8444 30.1804C53.3171 31.7688 55.3038 34.0391 56.5773 36.7314C57.8507 39.4238 58.3593 42.4295 58.045 45.4045C57.7307 48.3795 56.6061 51.2037 54.7999 53.5538L61.4762 60.4012C61.8092 60.7549 61.9935 61.2285 61.9893 61.7201C61.9852 62.2117 61.7929 62.682 61.454 63.0297C61.115 63.3773 60.6565 63.5745 60.1772 63.5788C59.6978 63.583 59.236 63.394 58.8913 63.0525L52.215 56.205C50.2688 57.7781 47.9841 58.851 45.5515 59.3342C43.1188 59.8175 40.6088 59.697 38.2307 58.983C35.8527 58.269 33.6756 56.982 31.8812 55.2295C30.0867 53.477 28.7268 51.3097 27.9151 48.9086C27.1034 46.5074 26.8633 43.942 27.2148 41.4263C27.5664 38.9107 28.4994 36.5177 29.936 34.447C31.3727 32.3764 33.2713 30.6882 35.4735 29.5232C37.6756 28.3582 40.1175 27.7502 42.5954 27.75ZM42.5954 31.5C39.4438 31.5 36.4214 32.784 34.1929 35.0696C31.9645 37.3552 30.7125 40.4552 30.7125 43.6875C30.7125 46.9198 31.9645 50.0198 34.1929 52.3054C36.4214 54.591 39.4438 55.875 42.5954 55.875C45.7469 55.875 48.7693 54.591 50.9978 52.3054C53.2262 50.0198 54.4782 46.9198 54.4782 43.6875C54.4782 40.4552 53.2262 37.3552 50.9978 35.0696C48.7693 32.784 45.7469 31.5 42.5954 31.5ZM42.5954 33.375C45.262 33.375 47.8195 34.4615 49.7051 36.3955C51.5907 38.3294 52.65 40.9525 52.65 43.6875C52.65 46.4225 51.5907 49.0456 49.7051 50.9795C47.8195 52.9135 45.262 54 42.5954 54C39.9287 54 37.3712 52.9135 35.4856 50.9795C33.6 49.0456 32.5407 46.4225 32.5407 43.6875C32.5407 40.9525 33.6 38.3294 35.4856 36.3955C37.3712 34.4615 39.9287 33.375 42.5954 33.375Z" fill="white"/>
</g>
<defs>
<clipPath id="clip0_72_166">
<rect width="43.875" height="45" fill="white" transform="translate(23.4001 24)"/>
</clipPath>
</defs>
</svg>
