<svg width="452" height="137" viewBox="0 0 452 137" fill="none" xmlns="http://www.w3.org/2000/svg">
<path d="M48.5944 10.2241C55.7437 10.2241 62.5304 11.7809 68.9544 14.8427C75.3784 17.9044 80.9217 22.2116 85.5324 27.7124L69.0062 41.4643C63.3075 35.1332 56.5208 31.9677 48.5944 31.9677C41.8078 31.9677 36.0573 34.3029 31.2911 38.9215C26.6285 43.4881 24.2972 49.1965 24.2972 56.1503C24.2972 63.156 26.6285 68.9162 31.2911 73.4828C36.0573 77.9976 41.8078 80.2291 48.5944 80.2291C56.5208 80.2291 63.3593 77.0635 69.0062 70.7843L85.5324 84.5882C80.9217 90.0889 75.3784 94.3442 68.9544 97.406C62.5304 100.468 55.7437 101.973 48.5944 101.973C35.0212 101.973 23.5201 97.6135 14.0914 88.9472C4.71438 80.229 0 69.2794 0 56.1503C0 43.0211 4.71438 32.1234 14.0914 23.4052C23.5201 14.6351 35.0212 10.2241 48.5944 10.2241Z" fill="white"/>
<path d="M108.223 100.726H82.6309L118.947 11.52H141.172L177.488 100.726H151.792L147.233 89.1015H112.989L108.223 100.726ZM130.086 42.6045L119.362 70.3159H140.809L130.086 42.6045Z" fill="white"/>
<path d="M206.5 100.726H182.203V11.52H222.716C231.575 11.52 239.087 14.478 245.303 20.4458C251.52 26.4655 254.68 33.6787 254.68 42.1893C254.68 47.8458 253.282 52.9833 250.536 57.6019C247.79 62.2204 244.06 65.5935 239.449 67.7212L261.726 100.726H233.854L215.67 72.9625H215.411H206.5V100.726ZM206.5 33.523V53.4503H220.022C223.286 53.4503 225.824 52.5162 227.689 50.648C229.554 48.7799 230.487 46.2371 230.487 42.9159C230.487 40.1136 229.71 37.8302 228.104 36.1177C226.498 34.3533 224.477 33.4712 222.094 33.4712H206.5V33.523Z" fill="white"/>
<path d="M308.3 10.2241C322.806 10.2241 334.877 15.5173 344.409 26.1037L327.935 39.9074C322.754 34.6143 316.226 31.9677 308.3 31.9677C301.513 31.9677 295.763 34.3029 290.997 38.9215C286.334 43.4881 284.003 49.1965 284.003 56.1503C284.003 63.156 286.334 68.9162 290.997 73.4828C295.763 77.9976 301.513 80.2291 308.3 80.2291C316.175 80.2291 322.34 77.6863 326.847 72.5488V66.5291H303.845V46.3423H347.828V82.1491C343.632 88.1688 338.037 92.995 330.991 96.5757C323.997 100.156 316.434 101.973 308.3 101.973C294.727 101.973 283.226 97.6135 273.797 88.9472C264.42 80.229 259.706 69.2794 259.706 56.1503C259.706 43.0211 264.42 32.1234 273.797 23.4052C283.226 14.6351 294.727 10.2241 308.3 10.2241Z" fill="white"/>
<path d="M451.026 56.4097C451.026 69.1238 446.208 80.0215 436.624 89.1029C426.988 98.0806 415.383 102.543 401.862 102.543C388.341 102.543 376.736 98.0806 367.1 89.1029C357.516 80.0734 352.75 69.1756 352.75 56.4097C352.75 43.6957 357.516 32.8499 367.1 23.7684C376.684 14.7389 388.237 10.2241 401.862 10.2241C415.487 10.2241 427.04 14.7389 436.624 23.7684C446.208 32.7461 451.026 43.6438 451.026 56.4097ZM377.565 56.4097C377.565 63.2597 379.896 69.0718 384.559 73.7423C389.273 78.4646 395.024 80.7999 401.862 80.7999C408.493 80.7999 414.192 78.4128 418.958 73.5866C423.828 68.7086 426.263 63.0003 426.263 56.4097C426.263 49.8711 423.828 44.1628 418.958 39.2847C414.192 34.4067 408.493 31.9677 401.862 31.9677C395.179 31.9677 389.428 34.4067 384.714 39.2847C379.948 44.059 377.565 49.7673 377.565 56.4097Z" fill="white"/>
<path d="M100.764 135.755H84.0303V113.389H100.505V118.889H90.1434V121.951H99.8312V126.985H90.1434V130.41H100.764V135.755Z" fill="white"/>
<path d="M118.222 135.755H111.591L118.999 124.338L112.005 113.389H118.74L122.626 119.564L126.511 113.389H133.246L126.2 124.338L133.609 135.755H126.977L122.574 128.905L118.222 135.755Z" fill="white"/>
<path d="M151.17 135.755H145.109V113.389H155.574C157.439 113.389 159.148 114.011 160.703 115.309C161.532 115.983 162.153 116.814 162.671 117.852C163.189 118.889 163.397 120.031 163.397 121.277C163.397 123.56 162.568 125.428 160.91 126.985C159.304 128.49 157.491 129.216 155.522 129.216H151.118V135.755H151.17ZM151.17 118.889V123.716H155.315C155.626 123.716 155.988 123.612 156.454 123.404C156.765 123.3 156.973 123.041 157.18 122.678C157.335 122.314 157.439 121.847 157.439 121.328C157.439 120.187 157.128 119.46 156.454 119.201C155.988 118.993 155.626 118.941 155.315 118.941H151.17V118.889Z" fill="white"/>
<path d="M181.633 135.755H175.572V113.389H185.726C187.954 113.389 189.819 114.115 191.373 115.62C192.927 117.125 193.704 118.941 193.704 121.069C193.704 122.47 193.341 123.767 192.668 124.909C191.994 126.051 191.062 126.881 189.87 127.452L195.465 135.703H188.472L183.913 128.749H183.861H181.633V135.755ZM181.633 118.889V123.871H185.052C185.881 123.871 186.503 123.664 186.969 123.197C187.435 122.73 187.694 122.107 187.694 121.277C187.694 120.602 187.487 120.031 187.073 119.564C186.658 119.149 186.192 118.889 185.57 118.889H181.633Z" fill="white"/>
<path d="M223.649 135.755H206.915V113.389H223.389V118.889H213.028V121.951H222.716V126.985H213.028V130.41H223.649V135.755Z" fill="white"/>
<path d="M234.631 131.345L238.931 128.023C239.552 128.854 240.33 129.528 241.314 130.047C242.298 130.566 243.334 130.826 244.474 130.826C246.443 130.826 247.479 130.307 247.479 129.217C247.479 128.646 247.064 128.179 246.235 127.816C245.614 127.556 245.148 127.401 244.94 127.349C243.334 126.882 242.195 126.519 241.417 126.259C237.998 124.962 236.237 122.834 236.237 119.824C236.237 117.748 237.014 116.088 238.568 114.894C240.122 113.701 241.987 113.13 244.215 113.13C247.893 113.13 250.639 114.323 252.452 116.711L248.463 120.136C247.479 118.942 246.132 118.371 244.422 118.371C243.645 118.371 243.075 118.475 242.661 118.734C242.246 118.994 242.039 119.305 242.039 119.72C242.039 120.032 242.091 120.291 242.246 120.499C242.402 120.706 242.609 120.862 242.92 121.018C243.283 121.173 243.645 121.277 244.06 121.381C245.096 121.589 246.443 122.004 247.997 122.575C249.914 123.249 251.261 124.131 252.141 125.169C253.022 126.207 253.437 127.505 253.437 129.061C253.437 131.293 252.659 133.005 251.157 134.251C249.655 135.496 247.427 136.119 244.526 136.119C242.039 136.119 239.967 135.652 238.361 134.718C236.703 133.784 235.46 132.642 234.631 131.345Z" fill="white"/>
<path d="M263.228 131.345L267.527 128.023C268.149 128.854 268.926 129.528 269.911 130.047C270.895 130.566 271.931 130.826 273.071 130.826C275.039 130.826 276.076 130.307 276.076 129.217C276.076 128.646 275.661 128.179 274.832 127.816C274.21 127.556 273.744 127.401 273.537 127.349C271.931 126.882 270.791 126.519 270.014 126.259C266.595 124.962 264.834 122.834 264.834 119.824C264.834 117.748 265.611 116.088 267.165 114.894C268.719 113.701 270.584 113.13 272.812 113.13C276.49 113.13 279.236 114.323 281.049 116.711L277.06 120.136C276.076 118.942 274.729 118.371 273.019 118.371C272.242 118.371 271.672 118.475 271.258 118.734C270.843 118.994 270.636 119.305 270.636 119.72C270.636 120.032 270.688 120.291 270.843 120.499C270.998 120.706 271.206 120.862 271.517 121.018C271.879 121.173 272.242 121.277 272.656 121.381C273.692 121.589 275.039 122.004 276.594 122.575C278.51 123.249 279.857 124.131 280.738 125.169C281.619 126.207 282.033 127.505 282.033 129.061C282.033 131.293 281.256 133.005 279.754 134.251C278.251 135.496 276.024 136.119 273.123 136.119C270.636 136.119 268.564 135.652 266.958 134.718C265.352 133.784 264.108 132.642 263.228 131.345Z" fill="white"/>
<path d="M321.304 135.755H315.243V113.389H325.708C327.573 113.389 329.282 114.011 330.836 115.309C331.665 115.983 332.287 116.814 332.805 117.852C333.323 118.889 333.53 120.031 333.53 121.277C333.53 123.56 332.701 125.428 331.044 126.985C329.438 128.49 327.624 129.216 325.656 129.216H321.304V135.755ZM321.304 118.889V123.716H325.449C325.759 123.716 326.122 123.612 326.588 123.404C326.899 123.3 327.106 123.041 327.314 122.678C327.469 122.314 327.573 121.847 327.573 121.328C327.573 120.187 327.262 119.46 326.588 119.201C326.122 118.993 325.759 118.941 325.449 118.941H321.304V118.889Z" fill="white"/>
<path d="M357.723 135.755H352.128L343.062 113.389H349.486L354.873 127.089L360.261 113.389H366.685L357.723 135.755Z" fill="white"/>
<path d="M63.7212 127.4H16.0593C14.5051 127.4 13.21 126.102 13.21 124.546C13.21 122.989 14.5051 121.691 16.0593 121.691H63.7212C65.2754 121.691 66.5706 122.989 66.5706 124.546C66.5188 126.102 65.2754 127.4 63.7212 127.4Z" fill="white"/>
<path d="M434.604 127.4H386.942C385.388 127.4 384.093 126.102 384.093 124.546C384.093 122.989 385.388 121.691 386.942 121.691H434.604C436.158 121.691 437.453 122.989 437.453 124.546C437.453 126.102 436.158 127.4 434.604 127.4Z" fill="white"/>
<path d="M33.1562 99.4292C40.1501 99.7925 47.0922 100.104 54.086 100.467C51.1849 100.778 48.2319 101.453 45.3826 101.245C41.2899 101.038 37.249 100.104 33.1562 99.4292Z" fill="#19222C"/>
<path d="M345.135 49.0928C344.617 49.2485 344.047 49.6117 343.529 49.6117C337.726 49.6636 331.924 49.6636 326.07 49.6117C325.5 49.6117 324.982 49.3004 324.412 49.1447C331.302 49.0928 338.244 49.0928 345.135 49.0928Z" fill="white"/>
<path d="M347.672 56.8245C347.517 55.1639 347.465 53.4514 347.206 51.7908C347.051 50.8567 346.533 49.9745 346.222 49.0404C347.154 48.8329 347.931 48.7291 347.879 50.1302C347.724 52.3616 347.724 54.5931 347.672 56.8245Z" fill="white"/>
<path d="M320.267 49.0928C319.076 49.0928 317.884 49.0928 316.641 49.0928C317.832 49.1447 319.076 49.0928 320.267 49.0928Z" fill="white"/>
<path d="M137.857 15.3098C137.546 14.5833 137.236 13.9086 136.925 13.1821C137.236 13.9086 137.546 14.6352 137.857 15.3098Z" fill="white"/>
</svg>
