<svg width="91" height="93" viewBox="0 0 91 93" fill="none" xmlns="http://www.w3.org/2000/svg">
<ellipse cx="45.4874" cy="46.5" rx="45.3375" ry="46.5" fill="#025A42"/>
<path d="M30.8626 53.0625V35.25C30.8626 33.5938 31.2818 32.2731 32.1203 31.2881C32.9588 30.3031 34.063 29.5531 35.4329 29.0381C36.804 28.5231 38.3658 28.1794 40.1183 28.0069C41.8709 27.8344 43.6606 27.7488 45.4876 27.75C47.4985 27.75 49.3955 27.8363 51.1785 28.0088C52.9615 28.1813 54.5154 28.525 55.8402 29.04C57.165 29.555 58.2083 30.305 58.97 31.29C59.7317 32.275 60.1126 33.595 60.1126 35.25V53.0625C60.1126 54.9063 59.4959 56.4613 58.2625 57.7275C57.0291 58.9938 55.513 59.6263 53.7141 59.625L56.4563 62.4375V63.375H52.8001L49.1438 59.625H41.8313L38.1751 63.375H34.5188V62.4375L37.261 59.625C35.4633 59.625 33.9472 58.9925 32.7126 57.7275C31.478 56.4625 30.8613 54.9075 30.8626 53.0625ZM34.5188 42.75H43.6594V37.125H34.5188V42.75ZM47.3157 42.75H56.4563V37.125H47.3157V42.75ZM39.0891 54C39.8813 54 40.5364 53.7344 41.0543 53.2031C41.5723 52.6719 41.8313 52 41.8313 51.1875C41.8313 50.375 41.5723 49.7031 41.0543 49.1719C40.5364 48.6406 39.8813 48.375 39.0891 48.375C38.2969 48.375 37.6418 48.6406 37.1239 49.1719C36.6059 49.7031 36.3469 50.375 36.3469 51.1875C36.3469 52 36.6059 52.6719 37.1239 53.2031C37.6418 53.7344 38.2969 54 39.0891 54ZM51.886 54C52.6782 54 53.3333 53.7344 53.8512 53.2031C54.3692 52.6719 54.6282 52 54.6282 51.1875C54.6282 50.375 54.3692 49.7031 53.8512 49.1719C53.3333 48.6406 52.6782 48.375 51.886 48.375C51.0938 48.375 50.4387 48.6406 49.9208 49.1719C49.4028 49.7031 49.1438 50.375 49.1438 51.1875C49.1438 52 49.4028 52.6719 49.9208 53.2031C50.4387 53.7344 51.0938 54 51.886 54Z" fill="#F2F2F2"/>
</svg>
