<svg width="31" height="19" viewBox="0 0 31 19" fill="none" xmlns="http://www.w3.org/2000/svg">
<path d="M0 0.823486V15.8823H1.36898C1.36898 16.6085 1.65745 17.3049 2.17092 17.8183C2.68438 18.3318 3.3808 18.6203 4.10695 18.6203C4.83311 18.6203 5.52952 18.3318 6.04299 17.8183C6.55646 17.3049 6.84492 16.6085 6.84492 15.8823H23.2727C23.2727 16.6085 23.5612 17.3049 24.0747 17.8183C24.5881 18.3318 25.2845 18.6203 26.0107 18.6203C26.7369 18.6203 27.4333 18.3318 27.9467 17.8183C28.4602 17.3049 28.7487 16.6085 28.7487 15.8823H30.1176V0.823486H0ZM27.3797 13.1443H24.6417V4.93044H21.9037V13.1443H19.1658V4.93044H16.4278V13.1443H13.6898V4.93044H10.9519V13.1443H8.2139V4.93044H5.47594V13.1443H2.73797V3.56145H27.3797V13.1443Z" fill="#152731"/>
</svg>
